# xmcd
#
# Track frame offsets: 
#        150
#        18077
#        35585
#        53387
#        68336
#        84474
#        103720
#        116726
#
# Disc length: 1758 seconds
#
# Revision: 0
# Processed by: cddbd v1.5.2PL0 Copyright (c) Steve Scherf et al.
# Submitted via: ExactAudioCopyFreeDBPlugin 1.0
#
DISCID=5506dc08
DTITLE=John Karl - Small Town
DYEAR=2002
DGENRE=Country and Folk
TTITLE0=Couldn't That Be
TTITLE1=Everything But Me
TTITLE2=There Goes The Neighborhood
TTITLE3=Crazy About You Baby
TTITLE4=Small Town
TTITLE5=Forever's Not Long Enough
TTITLE6=To Kill A Memory
TTITLE7=Party Tonight
EXTD=
EXTT0=
EXTT1=
EXTT2=
EXTT3=
EXTT4=
EXTT5=
EXTT6=
EXTT7=
PLAYORDER=
